:SAMPLES-PER-SECOND 30
:FULLY-SPECIFIED
:DEGREES
387
root  58.5241 34.1603 4.14499 -167.505 -57.0253 -176.195
RightUpLeg  -55.1698 -8.53164 3.90327
RightLeg  57.9048 -4.10773 -7.50455
RightFoot  -16.9025 -0.0675575 0.965819
RightToes  2.32829e-010 0 -3.6325e-017
Spine  62.8305 -5.65056 7.17911
Spine1  2.93391 -1.58947 -0.94587
HEad  -45.0768 6.30947 -17.0123
LeftShoulder1  13.4848 -21.1862 -47.63
LeftArm  -29.1674 -17.8652 -36.3094
LeftForeArm  44.9722 -78.0695 -90.9293
LeftHand  -0.244104 0.0205437 5.32207
RightShoulder  7.65487 13.1083 39.9334
RightArm  -42.0498 7.90058 7.12098
RightForeArm  90.1316 74.6873 130.347
RightHand  -0.109309 -5.67642 22.4935
LeftUpLeg  -89.8067 46.5591 -52.2159
LeftLeg  17.5463 -11.3622 -4.07153
LeftFoot  17.768 -1.82145 6.58417
LeftToes  1.42787e-010 7.94111e-011 2.6399e-011
388
root  58.4643 34.4216 4.10132 -168.434 -57.2136 -176.763
RightUpLeg  -52.7572 -8.01312 3.00672
RightLeg  56.8483 -4.58148 -7.96718
RightFoot  -16.6672 -0.0528071 1.2903
RightToes  2.32829e-010 0 -3.6325e-017
Spine  61.9041 -5.85049 7.17089
Spine1  3.45911 -1.80593 -1.1735
HEad  -45.1184 6.94899 -17.6059
LeftShoulder1  13.1651 -20.7672 -47.2943
LeftArm  -29.9429 -15.8939 -35.3157
LeftForeArm  50.7075 -78.1268 -93.9087
LeftHand  -0.244104 0.0205437 5.32207
RightShoulder  7.49816 13.0788 39.1158
RightArm  -40.8413 5.91898 6.8162
RightForeArm  95.5065 73.8958 134.004
RightHand  -0.478146 -7.3315 24.174
LeftUpLeg  -81.0198 47.6171 -43.4335
LeftLeg  14.8272 -6.42305 -4.89568
LeftFoot  18.7622 -1.85836 6.46856
LeftToes  1.42787e-010 7.94111e-011 2.6399e-011
389
root  58.391 34.6761 4.01807 -169.914 -57.3291 -176.866
RightUpLeg  -50.1009 -7.40324 2.44661
RightLeg  55.7513 -5.04438 -8.35389
RightFoot  -16.4992 -0.037892 1.63825
RightToes  2.32829e-010 0 -3.6325e-017
Spine  60.7813 -6.06672 6.99586
Spine1  4.14195 -2.08787 -1.4979
HEad  -45.4338 8.11866 -18.3755
LeftShoulder1  12.5729 -20.0697 -46.4976
LeftArm  -30.7137 -13.4978 -34.825
LeftForeArm  56.1755 -78.12 -97.4064
LeftHand  -0.244104 0.0205437 5.32207
RightShoulder  7.27484 13.2391 37.4146
RightArm  -37.5992 4.63304 7.48053
RightForeArm  95.1119 73.8705 134.008
RightHand  -0.865041 -9.17134 23.4714
LeftUpLeg  -67.3484 46.5791 -27.8953
LeftLeg  11.6941 2.96386 -6.59806
LeftFoot  19.7866 -1.99653 6.71762
LeftToes  1.42787e-010 7.94111e-011 2.6399e-011
390
root  58.3211 34.9026 3.89481 -171.665 -57.3456 -176.802
RightUpLeg  -47.4346 -6.82264 2.13372
RightLeg  54.9033 -5.48501 -8.74871
RightFoot  -16.3101 -0.0363491 1.70623
RightToes  2.32829e-010 0 -3.6325e-017
Spine  59.4118 -5.82735 6.99426
Spine1  4.39171 -1.87666 -1.50578
HEad  -45.177 8.66369 -19.1159
LeftShoulder1  12.4257 -19.6854 -46.7233
LeftArm  -30.5904 -10.5766 -34.0042
LeftForeArm  61.9843 -78.1333 -100.208
LeftHand  -0.244104 0.0205437 5.32207
RightShoulder  7.09416 13.2482 36.3448
RightArm  -33.1877 3.21694 7.41573
RightForeArm  90.1583 74.5097 131.015
RightHand  -1.0187 -10.0664 22.5339
LeftUpLeg  -55.3999 43.2145 -14.1271
LeftLeg  8.82455 11.8811 -8.30022
LeftFoot  20.4499 -2.05303 6.75459
LeftToes  1.42787e-010 7.94111e-011 2.6399e-011
391
root  58.263 35.1143 3.7303 -173.634 -57.4839 -176.911
RightUpLeg  -44.4125 -6.687 1.88696
RightLeg  54.171 -5.7381 -8.88071
RightFoot  -16.2988 -0.041924 1.58089
RightToes  2.32829e-010 0 -3.6325e-017
Spine  58.2097 -5.56711 7.35209
Spine1  4.10203 -1.44313 -1.61862
HEad  -44.2145 8.60458 -19.5363
LeftShoulder1  12.5142 -19.5595 -47.3296
LeftArm  -29.9185 -7.28085 -32.764
LeftForeArm  67.8332 -78.159 -102.587
LeftHand  -0.244104 0.0205437 5.32207
RightShoulder  7.02952 13.0679 36.4153
RightArm  -28.9679 1.54738 6.78856
RightForeArm  84.3555 75.1158 127.659
RightHand  -0.994715 -10.0073 22.2807
LeftUpLeg  -46.6861 39.089 -4.60306
LeftLeg  6.57992 18.5029 -9.39677
LeftFoot  20.6153 -1.82723 5.92733
LeftToes  1.42787e-010 7.94111e-011 2.6399e-011
392
root  58.2207 35.3283 3.52418 -175.921 -57.8551 -177.169
RightUpLeg  -40.7981 -7.12819 1.65957
RightLeg  53.303 -5.82102 -8.7184
RightFoot  -16.6075 -0.0468018 1.42735
RightToes  2.32829e-010 0 -3.6325e-017
Spine  57.1652 -5.53005 7.78586
Spine1  3.96741 -1.19642 -1.79868
HEad  -42.7384 8.57805 -19.7857
LeftShoulder1  12.5392 -19.3231 -47.9294
LeftArm  -29.5051 -4.19891 -30.747
LeftForeArm  70.485 -78.0863 -104.58
LeftHand  -0.244104 0.0205437 5.32207
RightShoulder  6.96929 12.8668 36.565
RightArm  -25.527 0.157859 6.86899
RightForeArm  79.8413 75.4696 125.288
RightHand  -0.983863 -10.1089 21.5754
LeftUpLeg  -39.7307 34.4289 2.41332
LeftLeg  4.94322 24.0431 -9.77526
LeftFoot  20.5058 -1.36998 4.35426
LeftToes  1.42787e-010 7.94111e-011 2.6399e-011
393
root  58.1917 35.5615 3.28133 -178.354 -58.4019 -177.45
RightUpLeg  -36.865 -8.01319 1.45968
RightLeg  52.2278 -5.91395 -8.51
RightFoot  -17.0045 -0.0548665 1.21813
RightToes  2.32829e-010 0 -3.6325e-017
Spine  56.0391 -5.60662 8.06524
Spine1  4.11747 -1.13086 -2.00598
HEad  -40.3609 8.88233 -19.7858
LeftShoulder1  12.4708 -18.9476 -48.4762
LeftArm  -29.5195 -1.25109 -27.7498
LeftForeArm  73.8524 -78.0523 -106.302
LeftHand  -0.244104 0.0205437 5.32207
RightShoulder  6.88164 12.6861 36.5021
RightArm  -22.3168 -0.601077 7.75277
RightForeArm  74.8717 75.9519 121.921
RightHand  -0.986089 -10.643 19.434
LeftUpLeg  -34.3076 29.744 7.33246
LeftLeg  4.05957 28.651 -9.43938
LeftFoot  19.8531 -0.797249 2.41231
LeftToes  1.42787e-010 7.94111e-011 2.6399e-011
